<svg width="1747" height="8307" viewBox="0 0 1747 8307" fill="none" xmlns="http://www.w3.org/2000/svg">
<path d="M293.5 855.413H233.368H158.596C140.609 850.628 135.763 838.662 135.589 833.279V426.469C136.286 419.49 141.864 405.291 158.596 404.334C175.851 401.143 226.989 395.121 293.5 396.557" stroke="white" stroke-width="5"/>
<path d="M293.5 855.413H353.632H428.404C446.391 850.628 451.236 838.662 451.411 833.279V426.469C450.714 419.49 445.137 405.291 428.404 404.334C411.149 401.143 360.01 395.121 293.5 396.557" stroke="white" stroke-width="5"/>
<path d="M146.356 407.697V356.888H228.9V396.937" stroke="white" stroke-width="3"/>
<path d="M431.672 426.825H155.328V632.452H431.672V426.825Z" stroke="white" stroke-width="3"/>
<path d="M285.879 679.832L226.665 739.007C222.694 742.975 222.694 749.409 226.665 753.378L285.879 812.552C289.85 816.521 296.288 816.521 300.259 812.552L359.473 753.378C363.444 749.409 363.444 742.975 359.473 739.007L300.259 679.832C296.288 675.864 289.85 675.864 285.879 679.832Z" stroke="white" stroke-width="3"/>
<path d="M279.144 788.465C281.663 796.696 286.545 806.805 292.392 807.549C296.799 808.111 301.754 803.353 306.659 788.465" stroke="white"/>
<path d="M279.144 703.584C281.663 695.353 286.545 685.244 292.392 684.5C296.799 683.938 301.754 688.697 306.659 703.584" stroke="white"/>
<path d="M335.37 759.773C343.607 757.256 353.723 752.378 354.467 746.534C355.029 742.13 350.268 737.178 335.37 732.276" stroke="white"/>
<path d="M250.433 760.969C242.197 758.452 232.081 753.573 231.336 747.73C230.775 743.325 235.536 738.373 250.433 733.472" stroke="white"/>
<path d="M292.304 768.739C305.187 768.739 315.631 758.302 315.631 745.427C315.631 732.552 305.187 722.115 292.304 722.115C279.42 722.115 268.976 732.552 268.976 745.427C268.976 758.302 279.42 768.739 292.304 768.739Z" stroke="white"/>
<path d="M210.668 703.584C211.928 697.188 209.697 684.799 190.696 686.416" stroke="white" stroke-width="3"/>
<path d="M181.099 686.38L195.526 677.479L195.615 695.118L181.099 686.38Z" fill="white"/>
<path d="M368.867 687.445L378.437 698.802L391.596 682.065L400.569 693.422L411.933 690.434" stroke="white" stroke-width="3"/>
<path d="M147.552 356.888C149.223 347.464 159.458 328.533 187.03 328.196" stroke="white"/>
<path d="M226.507 356.888C224.836 347.464 214.601 328.533 187.03 328.196" stroke="white"/>
<path d="M187.5 354.5V257.5C181.167 75.4999 286.8 -188.2 760 213C1226.85 608.816 664.003 944.057 311.275 1067.58C301.866 1070.87 293.111 1076.45 289.187 1085.61C275.452 1117.69 302.544 1151.54 498 1097.5C776.5 1020.5 1662 1038 1707 1255.5C1751.36 1469.91 1697.08 2429.69 1593.51 2484.21C1590.5 2485.79 1587.4 2486.84 1584.31 2488.23C1484.78 2533.09 1435.87 2392.13 1500.5 2327.5C1556.5 2271.5 1793.5 2149.5 1735.5 2369C1690.18 2540.51 1584.89 2573.03 1534.51 2567.93C1532.15 2567.69 1529.93 2567.54 1527.56 2567.37C1438.47 2560.87 1189.29 2311.16 755.5 2361C316 2411.5 200.5 2439 116.5 2486C32.5 2533 -55 2697 52.5 3489.5C160 4282 905.5 3852 1021 3991.5C1136.5 4131 922 4126.5 733 4890.5C544 5654.5 911.5 5396.5 1278.5 5594C1645.5 5791.5 1396 5979 1222 5933C1087.06 5897.33 1097.84 5817.11 1121.71 5778.07C1123.18 5775.66 1124.95 5773.49 1126.93 5771.48C1198.82 5698.22 1336.58 5623.91 1335 5893C1333.4 6165.8 1111.67 6227.67 1001 6224.5C934.5 6222.5 770.1 6311.1 644.5 6681.5C518.9 7051.9 251.167 7051.5 133 7005C69.5 6986.5 13.4 7031.8 5 7115C-5.5 7219 213 7692.5 493 7846C773 7999.5 1271 7694.5 1390.5 7866C1486.1 8003.2 1442.33 8216.17 1408.5 8305.5" stroke="white" stroke-opacity="0.6" stroke-width="4"/>
</svg>
