<svg width="323" height="532" viewBox="0 0 323 532" fill="none" xmlns="http://www.w3.org/2000/svg">
<path d="M161.5 528.413H101.368H26.5958C8.60859 523.628 3.7632 511.662 3.5889 506.279V99.4693C4.28608 92.4897 9.86351 78.2913 26.5958 77.3341C43.851 74.1435 94.9892 68.1211 161.5 69.5569" stroke="white" stroke-width="5"/>
<path d="M161.5 528.413H221.632H296.404C314.391 523.628 319.236 511.662 319.411 506.279V99.4693C318.714 92.4897 313.137 78.2913 296.404 77.3341C279.149 74.1435 228.01 68.1211 161.5 69.5569" stroke="white" stroke-width="5"/>
<path d="M14.3556 80.6967V29.8877H96.9V69.9371" stroke="white" stroke-width="3"/>
<path d="M299.672 99.8247H23.3278V305.452H299.672V99.8247Z" stroke="white" stroke-width="3"/>
<path d="M153.879 352.832L94.665 412.007C90.6939 415.975 90.6939 422.409 94.665 426.378L153.879 485.552C157.85 489.521 164.288 489.521 168.259 485.552L227.473 426.378C231.444 422.409 231.444 415.975 227.473 412.007L168.259 352.832C164.288 348.864 157.85 348.864 153.879 352.832Z" stroke="white" stroke-width="3"/>
<path d="M147.144 461.465C149.663 469.696 154.545 479.805 160.392 480.549C164.799 481.111 169.754 476.353 174.659 461.465" stroke="white"/>
<path d="M147.144 376.584C149.663 368.353 154.545 358.244 160.392 357.5C164.799 356.938 169.754 361.697 174.659 376.584" stroke="white"/>
<path d="M203.37 432.773C211.607 430.256 221.723 425.378 222.467 419.534C223.029 415.13 218.268 410.178 203.37 405.276" stroke="white"/>
<path d="M118.433 433.969C110.197 431.452 100.081 426.573 99.3363 420.73C98.7751 416.325 103.536 411.373 118.433 406.472" stroke="white"/>
<path d="M160.304 441.739C173.187 441.739 183.631 431.302 183.631 418.427C183.631 405.552 173.187 395.115 160.304 395.115C147.42 395.115 136.976 405.552 136.976 418.427C136.976 431.302 147.42 441.739 160.304 441.739Z" stroke="white"/>
<path d="M78.6682 376.584C79.9277 370.188 77.6966 357.799 58.6957 359.416" stroke="white" stroke-width="3"/>
<path d="M49.0995 359.38L63.5262 350.479L63.6151 368.118L49.0995 359.38Z" fill="white"/>
<path d="M236.867 360.445L246.437 371.802L259.596 355.065L268.569 366.422L279.933 363.434" stroke="white" stroke-width="3"/>
<path d="M15.5518 29.8877C17.2228 20.4642 27.4579 1.53311 55.0296 1.19556" stroke="white"/>
<path d="M94.5074 29.8877C92.8364 20.4642 82.6014 1.53311 55.0296 1.19556" stroke="white"/>
</svg>
