<svg width="1747" height="8307" viewBox="0 0 1747 8307" fill="none" xmlns="http://www.w3.org/2000/svg">
<path d="M187.5 354.5V257.5C181.167 75.4999 286.8 -188.2 760 213C1226.85 608.816 664.003 944.057 311.275 1067.58C301.866 1070.87 293.111 1076.45 289.187 1085.61C275.452 1117.69 302.544 1151.54 498 1097.5C776.5 1020.5 1662 1038 1707 1255.5C1751.36 1469.91 1697.08 2429.69 1593.51 2484.21C1590.5 2485.79 1587.4 2486.84 1584.31 2488.23C1484.78 2533.09 1435.87 2392.13 1500.5 2327.5C1556.5 2271.5 1793.5 2149.5 1735.5 2369C1690.18 2540.51 1584.89 2573.03 1534.51 2567.93C1532.15 2567.69 1529.93 2567.54 1527.56 2567.37C1438.47 2560.87 1189.29 2311.16 755.5 2361C316 2411.5 200.5 2439 116.5 2486C32.5 2533 -55 2697 52.5 3489.5C160 4282 905.5 3852 1021 3991.5C1136.5 4131 922 4126.5 733 4890.5C544 5654.5 911.5 5396.5 1278.5 5594C1645.5 5791.5 1396 5979 1222 5933C1087.06 5897.33 1097.84 5817.11 1121.71 5778.07C1123.18 5775.66 1124.95 5773.49 1126.93 5771.48C1198.82 5698.22 1336.58 5623.91 1335 5893C1333.4 6165.8 1111.67 6227.67 1001 6224.5C934.5 6222.5 770.1 6311.1 644.5 6681.5C518.9 7051.9 251.167 7051.5 133 7005C69.5 6986.5 13.4 7031.8 5 7115C-5.5 7219 213 7692.5 493 7846C773 7999.5 1271 7694.5 1390.5 7866C1486.1 8003.2 1442.33 8216.17 1408.5 8305.5" stroke="white" stroke-opacity="0.6" stroke-width="4"/>
</svg>
